<?xml version="1.0" standalone="no"?>
<!DOCTYPE svg PUBLIC "-//W3C//DTD SVG 1.1//EN" "http://www.w3.org/Graphics/SVG/1.1/DTD/svg11.dtd">
<svg xmlns="http://www.w3.org/2000/svg">
<metadata>Generated by Fontastic.me</metadata>
<defs>
<font id="untitled-font-1" horiz-adv-x="512">
<font-face font-family="untitled-font-1" units-per-em="512" ascent="480" descent="-32"/>
<missing-glyph horiz-adv-x="512" />

<glyph glyph-name="automatic-flash" unicode="&#97;" d="M246 304l-75 0 86 192c3 8-2 16-10 16l-155 0c-5 0-9-3-11-8l-69-272c-2-7 3-14 10-14l103 0-16-78-25 0c-8 0-14-8-10-16l22-47 17-35 17-36c4-8 16-8 20 0l56 118c4 7-1 16-10 16l-27 0 87 148c4 7-1 16-10 16z m254-290l-86 283c-1 5-6 8-10 8l-86 0c-5 0-9-3-11-8l-86-283c-2-7 3-14 11-14l61 0c5 0 10 4 11 9l13 56 87 0 13-56c1-5 6-9 11-9l62 0c7 0 12 7 10 14z m-139 113l-29 0 5 21c7 29 15 66 22 97l3 0c8-31 15-68 23-97l5-21z"/>
<glyph glyph-name="camera-flash" unicode="&#98;" d="M144 218l103 0-17-78-25 0c-8 0-13-8-10-16l23-47 16-35 18-36c4-8 16-8 20 0l56 118c4 7-2 16-10 16l-27 0 86 148c5 7 0 16-9 16l-76 0 86 192c3 8-2 16-10 16l-154 0c-5 0-10-3-11-8l-70-272c-2-7 4-14 11-14z"/>
<glyph glyph-name="flash-off" unicode="&#99;" d="M128 218l44 0 120 120 71 159c3 7-2 15-10 15l-155 0c-5 0-9-3-10-8l-70-272c-2-7 3-14 10-14z m225 87l-4 0-126-126-8-38-25 0c-8 0-13-9-10-16l22-47 17-35 18-37c3-8 15-8 19 0l57 119c3 7-2 15-10 15l-28 0 87 148c5 8-1 17-9 17z m-339-275c0 0 0 0 0 0l36 0c3 0 6 1 8 3l170 170 102 102 171 170c3 3 1 9-3 9l-37 0c-3 0-6-2-8-4l-176-175-86-87-180-180c-3-3-1-8 3-8z"/>
<glyph glyph-name="switch-camera-button" unicode="&#100;" d="M461 435l-82 0-46 51-154 0-46-51-82 0c-28 0-51-23-51-51l0-307c0-28 23-51 51-51l410 0c28 0 51 23 51 51l0 307c0 28-23 51-51 51z m-287-179c0-46 36-82 82-82 46 0 82 36 82 82l-44 0 64 64 64-64-38 0c0-72-56-128-128-128-72 0-128 56-128 128z"/>
<glyph glyph-name="video-filled-camera-silhouette" unicode="&#101;" d="M502 385c-6 3-13 2-18-2l-99-86 0 98c0 9-7 17-17 17l-351 0c-9 0-17-8-17-17l0-278c0-9 8-17 17-17l351 0c10 0 17 7 17 17l0 97 100-85c4-4 12-5 17-2 6 2 10 8 10 15l0 228c0 7-4 12-10 15z"/>
<glyph glyph-name="init-stream" unicode="&#102;" d="M324 93c0 0 46 0 46 47l0 232c0 47-46 47-46 47l-277 0c0 0-47 0-47-47l0-232c0-47 47-47 47-47z m74 235l0-145 114-90 0 326z"/>
<glyph glyph-name="play-stream" unicode="&#103;" d="M497 371l-98-55 0 46c0 16-12 29-29 29l-134 0 0 19c0 10-6 18-16 18l-53 0c-10 0-18-8-18-18l0-19-26 0 0 19c0 10-7 18-17 18l-53 0c-9 0-18-8-18-18l0-19-5 0c-16 0-30-13-30-29l0-248c0-17 14-30 30-30l340 0c17 0 29 13 29 30l0 46 98-54c8-5 15-1 15 9l0 247c0 10-7 14-15 9z m-297-229c-54 0-97 43-97 97 0 54 43 97 97 97 54 0 97-43 97-97 0-54-43-97-97-97z m55 107l-76 52c-8 5-14 2-14-8l0-108c0-10 6-13 14-8l76 52c7 6 8 14 0 20z"/>
<glyph glyph-name="left-arrow" unicode="&#106;" d="M431 418c0 7-3 13-7 17l-70 70c-4 4-11 7-17 7-6 0-13-3-17-7l-232-232c-4-4-7-11-7-17 0-6 3-13 7-17l232-232c4-4 11-7 17-7 6 0 13 3 17 7l70 70c4 4 7 11 7 17 0 6-3 13-7 17l-145 145 145 145c4 4 7 11 7 17z"/>
<glyph glyph-name="pause-video" unicode="&#104;" d="M128 464l0-96-128 96 0-320 128 96 0-96 104 0c20-56 73-96 136-96 63 0 116 40 136 96l8 0 0 320z m240-382c-61 0-110 49-110 110 0 61 49 110 110 110 61 0 110-49 110-110 0-61-49-110-110-110z m16 158l32 0 0-96-32 0z m-64 0l32 0 0-96-32 0z"/>
<glyph glyph-name="stop-video" unicode="&#105;" d="M128 464l0-96-128 96 0-320 128 96 0-96 104 0c20-56 73-96 136-96 63 0 116 40 136 96l8 0 0 320z m240-382c-61 0-110 49-110 110 0 61 49 110 110 110 61 0 110-49 110-110 0-61-49-110-110-110z m-48 158l96 0 0-96-96 0z"/>
<glyph glyph-name="switch-video" unicode="&#107;" d="M410 320l0 90c0 15-11 25-26 25l-358 0c-16 0-26-10-26-25l0-308c0-15 10-25 26-25l358 0c15 0 26 10 26 25l0 90 102-102 0 332z m-287-38c0-39 31-70 69-70 38 0 69 31 69 70l-43 0 64 64 64-64-39 0c0-64-51-116-115-116-64 0-115 52-115 116z"/>
<glyph glyph-name="wallet-filled-money-tool" unicode="&#108;" d="M120 408l204 56-11 22c-7 14-25 20-39 13l-182-91z m267 54c-3 0-5 0-8-1l-48-13-146-40 239 0-9 33c-4 13-15 21-28 21z m67-74l-425 0c-9 0-17-4-23-11-2-3-4-6-5-10-1-2-1-5-1-8l0-320c0-16 13-28 29-28l424 0c16 0 29 12 29 28l0 80-170 0c-27 0-49 22-49 49l0 64c0 13 5 25 14 34 7 8 17 13 29 15 2 0 4 0 6 0l170 0 0 78c0 16-13 29-28 29z m48-135c-3 3-6 5-10 6-3 1-6 2-9 2l-171 0c-16 0-29-13-29-29l0-64c0-16 13-28 29-28l171 0c3 0 6 0 9 1 4 1 7 3 10 6 6 5 10 13 10 21l0 64c0 9-4 16-10 21z m-130-58c0-8-7-15-15-15l-9 0c-8 0-15 7-15 15l0 9c0 5 3 9 6 11 2 2 5 3 9 3l9 0c8 0 15-6 15-14z"/>
<glyph glyph-name="black-and-white-credit-cards" unicode="&#109;" d="M481 274l-224 225c-9 9-20 13-32 13-12 0-23-4-32-13l-123-123c-18-18-18-47 0-65l21-21 47 0-44 45c-3 3-4 7-4 9 0 1 1 5 4 8l16 16 77-78 74 0-114 115 70 70c3 3 6 4 8 4 2 0 5-1 9-4l224-224c3-3 4-7 4-9 0-2-1-5-4-8l-13-13 0-47 36 36c18 18 18 47 0 64z m-105-5l-317 0c-25 0-47-20-47-45l0-120 409 0 0 120c0 25-20 45-45 45z m-253-124c-9 0-17 4-22 9-6-5-14-9-23-9-18 0-33 15-33 33 0 18 15 33 33 33 9 0 17-4 23-9 5 5 13 9 22 9 19 0 33-15 33-33 0-18-14-33-33-33z m-111-95c0-25 22-45 47-45l317 0c25 0 45 20 45 45l0 3-409 0z"/>
<glyph glyph-name="hand-holding-bill-with-dollar-sign" unicode="&#110;" d="M288 360c2-1 3-2 4-4 5-6 11-11 19-14 7-3 13-1 14 4l0 0c2 5 0 8-13 16-15 10-24 18-19 34l0 1c5 12 16 18 30 17l2 6c2 4 6 6 11 5 4-1 6-6 5-10l-2-7c6-3 11-7 15-12 2-2 3-5 2-9-2-4-7-7-11-5-2 0-3 1-4 3-5 5-10 9-16 11-7 2-12 0-13-4l0 0c-2-5 1-8 14-17 15-10 23-19 18-33l0-1c-5-14-18-20-33-17l-2-5c-1-5-6-7-10-6-5 2-7 6-6 11l3 6c-7 4-14 9-19 16-1 2-2 5-1 8 2 5 7 7 12 6z m168 67l-64-186c19-7 33-26 33-49 0-27-21-49-48-52l0-76c0-29-24-53-53-53l-100 0c-13 0-25 5-34 13-10-14-26-24-45-24l-37 0c-30 0-53 24-53 53l0 151c0 29 23 52 53 52l37 0c6 0 12-1 17-2l84 243c4 12 16 18 27 14l169-56c6-2 10-6 13-11 3-5 3-11 1-17z m-298-363c0 18-14 32-32 32-17 0-32-14-32-32 0-18 15-32 32-32 18 0 32 14 32 32z m250 356l-128 43-72-208 60 40c21 14 49 9 63-12 8-11 9-25 6-38l10 0z"/>
<glyph glyph-name="home-icon-silhouette" unicode="&#111;" d="M504 279l-78 77 0 90c0 16-13 29-29 29-16 0-30-13-30-29l0-31-57 58c-29 29-79 28-107 0l-194-194c-12-12-12-30 0-42 11-11 30-11 41 0l194 194c7 7 18 7 24 0l194-194c6-6 14-8 21-8 8 0 15 2 21 8 11 12 11 30 0 42z m-238 97c-5 5-14 5-20 0l-171-171c-2-3-4-6-4-10l0-125c0-29 24-53 53-53l84 0 0 131 96 0 0-131 84 0c30 0 53 24 53 53l0 125c0 4-1 7-4 10z"/>
<glyph glyph-name="home-page" unicode="&#112;" d="M470 208l-31 0 0-144c0-25-21-46-46-46l-274 0c-26 0-46 21-46 46l0 144-31 0c-35 0-59 43-27 75l184 187c16 17 36 24 57 24 20 0 41-7 57-24l42-42 0 37c0 17 13 29 30 29l25 0c15 0 29-12 29-29l0-123 58-60c31-31 8-74-27-74z"/>
<glyph glyph-name="binoculars" unicode="&#113;" d="M442 358c-61 42-161 19-168-58-12 4-24 7-36 9-35 57-104 104-168 67-64-38-72-155-65-229-12-30-2-63 27-85 39-29 94-38 140-21 21 8 41 27 52 48 7-2 17 0 24 0 4 1 9 1 13 1 2 0 4 0 6 0 3 0 1 0 2 0 3-1 6-1 8 0 8-14 21-27 37-37 50-33 123-29 163 19 11 13 17 26 20 37 2 1 3 2 3 4 30 69 7 201-58 245z m-243-261c-10-18-27-29-46-35-62-20-137 20-128 84 19 3 36 10 55 16 28 9 57 9 84 0 33-9 52-33 35-65z m262-3c-46-75-196-26-167 57 3-2 7-2 10 1 45 33 208 25 157-58z m-330 385c-45 1-81-40-85-82 0-7 5-11 11-12 2-2 6-2 9 0 28 23 77 26 106 5 6-4 16-1 17 7 6 42-11 81-58 82z m326-76c4 6-2 14-7 20-3 13-17 25-27 32-16 11-37 14-55 12-40-4-69-40-58-80-4-7 6-14 13-9 20 16 41 23 67 24 21 1 37-10 57-15 10-2 15 9 10 16z"/>
<glyph glyph-name="binoculars-1" unicode="&#114;" d="M118 318c-13 3-28 7-28 7-7 2-25-8-39-27-15 4-26 6-26 6-4 1-19-8-24-25-4-16 3-33 7-34 0 0 10-3 25-8 1-25 12-45 18-47 0 0 11-3 27-8-8 23-5 49 3 76 7 23 17 41 37 60z m379 24c0 0-145 35-229 56-17-12-30-30-39-60-5-18-7-34-7-47-11 3-22 6-33 8 0 16 3 32 8 49 6 23 17 41 37 60-14 3-29 7-29 7-6 2-24-8-39-27-15 3-25 6-25 6-4 1-19-9-24-25-5-16 3-33 7-34 0 0 10-4 24-8 1-7 2-13 3-19-17-13-29-30-38-60-11-39-7-68-1-77 84-27 226-72 226-72 15-5 37 26 49 69 4 14 7 27 8 39 34-11 58-19 59-19 15-4 37 27 49 69 12 43 10 81-6 85z m-130-168c-10-33-26-56-37-53-12 3-14 32-4 64 9 32 25 56 37 53 11-3 13-32 4-64z m115 89c-9-32-25-55-37-52-11 3-13 32-4 64 9 32 26 56 37 52 12-3 13-31 4-64z"/>
<glyph glyph-name="eye-button" unicode="&#115;" d="M254 512c-140 0-254-114-254-254 0-140 114-254 254-254 140 0 254 114 254 254 0 140-114 254-254 254z m0-368c-119 0-183 111-183 111 0 0 64 111 183 111 119 0 183-111 183-111 0 0-64-111-183-111z m0 206c-52 0-94-43-94-95 0-52 42-94 94-94 52 0 95 42 95 94 0 52-43 95-95 95z m0-158c-35 0-64 28-64 63 0 36 29 64 64 64 35 0 64-29 64-64 0-35-29-63-64-63z m24 59c-13 0-23 11-23 23 0 12 8 21 19 23-6 3-13 4-20 4-25 0-46-20-46-46 0-25 21-46 46-46 26 0 46 21 46 46 0 4 0 8-1 11-3-9-12-15-21-15z"/>
<glyph glyph-name="speech-bubble-with-text" unicode="&#116;" d="M128 320l256 0 0 64-256 0z m320 192l-384 0c-35 0-64-29-64-64l0-288c0-35 29-64 64-64l208 0 144-96 0 96 32 0c35 0 64 29 64 64l0 288c0 35-29 64-64 64z m0-320c0-18-14-32-32-32l-64 0 0-48-80 48-176 0c-18 0-32 14-32 32l0 224c0 18 14 32 32 32l320 0c18 0 32-14 32-32z m-320 32l256 0 0 64-256 0z"/>
<glyph glyph-name="speech-message" unicode="&#117;" d="M490 482l-468 0c-12 0-22-10-22-22l0-329c0-12 10-21 22-21l260 0 99-75c14-10 25-4 25 12l0 63 84 0c12 0 22 9 22 21l0 329c0 12-10 22-22 22z m-352-217c-19 0-34 15-34 33 0 19 15 34 34 34 18 0 33-15 33-34 0-18-15-33-33-33z m118 0c-18 0-33 15-33 33 0 19 15 34 33 34 18 0 33-15 33-34 0-18-14-33-33-33z m118 0c-18 0-33 15-33 33 0 19 15 34 33 34 19 0 34-15 34-34 0-18-15-33-34-33z"/>
<glyph glyph-name="edit-interface-symbol-of-a-pencil-on-a-square-outline-paper" unicode="&#118;" d="M388 268l61 59 0-263c0-35-29-64-64-64l-321 0c-35 0-64 29-64 64l0 320c0 36 29 64 64 64l263 0-61-60-206 0 0-328 328 0z m1 186l65-65 21 21-65 65z m58 58l-21-22 65-64 21 21z m-271-271l195 195 65-65-195-195-94-29z m33-2l11-12 167 164-11 12z"/>
<glyph glyph-name="employee-card" unicode="&#120;" d="M474 424l-134 0c-1 3-1 5-3 7-3 5-9 8-15 8l-298 0c-13 0-24-11-24-24l0-318c0-13 11-24 24-24l298 0c6 0 12 3 15 8 2 2 2 4 3 7l134 0c21 0 38 17 38 38l0 260c0 21-17 38-38 38z m-3-295l-146 0c-7 17-15 40-22 63l121 0 0 44-130 0c-1 7-2 13-2 19 0 7 1 14 2 21l130 0 0 44-120 0c6 23 14 46 21 63l146 0z"/>
<glyph glyph-name="id-card" unicode="&#121;" d="M232 185c0-12-10-22-22-22 0 0 0 0 0 0l-114 0c-13 0-23 10-23 22 0 26 22 47 48 47l4 0c-11 9-19 22-19 38 0 25 21 46 47 46 25 0 46-21 46-46 0-16-8-29-19-38l5 0c25 0 46-20 47-45 0-1 0-1 0-2z m280 227l0-312c0-9-8-16-17-16l-478 0c-9 0-17 7-17 16l0 312c0 9 8 16 17 16l478 0c9 0 17-7 17-16z m-255-58c0 9-7 17-16 17l-176 0c-9 0-17-8-17-17l0-196c0-9 8-17 17-17l176 0c9 0 16 8 16 17l0 196z m203-170c0 9-8 17-17 17l-120 0c-10 0-17-8-17-17 0-9 7-17 17-17l120 0c9 0 17 8 17 17z m0 72c0 9-8 17-17 17l-120 0c-10 0-17-8-17-17 0-9 7-17 17-17l120 0c9 0 17 8 17 17z m0 72c0 9-8 17-17 17l-120 0c-10 0-17-8-17-17 0-9 7-17 17-17l120 0c9 0 17 8 17 17z"/>
<glyph glyph-name="invoice" unicode="&#119;" d="M456 512c-11 0-27-15-34-21l-16-16c-3-2-6-4-10-4-4 0-8 2-11 4l-16 16c-11 10-29 21-42 21-14 0-32-11-42-21l-17-16c-2-2-6-4-10-4-4 0-8 2-10 4l-17 16c-10 10-29 21-42 21-13 0-32-11-42-21l-17-16c-2-2-6-4-10-4-4 0-8 2-10 4l-17 16c0 1-22 21-35 21-15 0-21-20-21-37l0-438c0-17 6-37 21-37 12 0 33 19 35 21l16 16c3 2 7 4 11 4 4 0 8-2 10-4l17-16c10-10 29-21 42-21 13 0 32 11 42 21l17 16c2 2 6 4 10 4 4 0 8-2 10-4l17-16c10-10 29-21 42-21 13 0 32 11 42 21l17 16c2 2 6 4 10 4 4 0 8-2 10-4l17-16c8-8 23-21 33-21 12 0 19 13 19 37l0 438c0 24-7 37-19 37z m-77-385l-108 0 0 45 108 0z m0 108l-243 0 0 42 243 0z m0 105l-243 0 0 45 243 0z"/>
<glyph glyph-name="dollar-symbol" unicode="&#122;" d="M256 512c-141 0-256-115-256-256 0-141 115-256 256-256 141 0 256 115 256 256 0 141-115 256-256 256z m15-370l0-29c0-5-3-8-8-8l-20 0c-4 0-8 3-8 8l0 27c-18 1-37 4-50 10-8 3-12 11-10 18l3 13c1 4 4 8 8 10 4 2 9 2 13 1 13-5 29-9 46-9 21 0 35 8 35 23 0 14-12 23-39 32-40 14-67 32-67 68 0 33 23 59 63 67l0 27c0 4 4 9 8 9l20 0c5 0 8-5 8-9l0-25c17 0 30-3 40-6 8-3 13-11 11-19l-3-12c-1-4-4-7-8-10-4-2-8-2-13-1-9 4-21 7-37 7-24 0-32-11-32-21 0-12 13-20 45-32 44-16 62-36 62-70 0-33-24-61-67-69z"/>
<glyph glyph-name="credit-card-with-cvv-code" unicode="&#65;" d="M305 227c2 0 3 0 5 0 1 1 2 1 3 1 3 1 3 4 2 6 0 2-2 3-5 3-2 0-5 0-7 1-5 2-6 9-4 13 1 3 4 4 7 5 1 0 3 0 4 0 2 0 3 0 4 1 1 1 2 4 1 6-1 3-5 3-8 3-5 0-10-1-14-4-7-6-9-17-5-25 3-7 10-10 17-10z m24 3c2-3 7-2 10-2 2 0 3 0 4 2 0 1 0 1 1 2 2 6 4 11 6 17 1 3 2 6 3 9 1 2 2 5-1 6-1 1-3 1-5 1-2 0-4-1-5-3 0-2-1-5-2-7-1-5-2-9-3-14-2 7-4 13-6 20 0 1 0 2-1 3-2 1-4 1-5 1-2 0-4 0-5-1-2-1-2-3-1-5 3-9 7-19 10-29z m39 0c2-3 7-2 10-2 2 0 3 0 4 2 0 1 1 1 1 2 2 6 4 11 6 17 1 3 2 6 3 9 1 2 2 5-1 6-1 1-3 1-5 1-2 0-4-1-5-3 0-2-1-5-2-7-1-5-2-9-3-14-2 7-4 13-6 20 0 1 0 2-1 3-2 1-4 1-5 1-2 0-4 0-5-1-2-1-2-3-1-5 3-9 7-19 10-29z m-28-97c-24 0-47 7-65 20l-220 0c-13 0-24 11-24 25l0 133 209 0c12 19 29 34 48 44l-257 0 0 21c0 14 11 25 24 25l352 0c14 0 25-11 25-25l0-21-41 0c39-20 66-59 66-105 0-17-4-33-10-48l15-14 0 188c0 31-24 56-55 56l-352 0c-30 0-55-25-55-56l0-198c0-31 25-56 55-56l351 0-21 20c-14-6-29-9-45-9z m-264 133c-4 0-8-4-8-8l0-24c0-4 4-8 8-8l150 0c-2 8-3 16-3 24 0 5 1 11 1 16z m430-151l-82 76c11 17 18 37 18 59 0 56-46 102-102 102-57 0-103-46-103-102 0-57 46-103 103-103 20 0 39 6 55 16l84-78c4-3 8-5 13-5 6 0 11 2 15 6 7 8 7 21-1 29z m-166 203c37 0 67-31 67-68 0-38-30-68-67-68-38 0-68 30-68 68 0 37 30 68 68 68z"/>
<glyph glyph-name="credit-card-security" unicode="&#66;" d="M480 382c0 24-19 44-44 44l-392 0c-24 0-44-20-44-44l0-39 480 0z m12-134c-4 1-8 2-12 3l0 45-480 0 0-135c0-25 20-45 44-45l326 0c13-13 25-22 32-26 4-3 8-4 13-4 4 0 9 1 13 4 8 5 23 17 39 34 26 30 42 63 45 100 1 11-8 22-20 24z m-323-72c0-3-2-6-6-6l-92 0c-4 0-6 3-6 6l0 19c0 3 2 6 6 6l92 0c4 0 6-3 6-6z m279-35c-13-14-26-24-33-29-8 5-20 15-33 29-23 25-36 53-39 82 32 6 58 27 72 40 14-13 40-34 71-40-3-29-16-57-38-82z m-88 73c1-10 3-19 7-27l48 0 0 57c-11-10-31-26-55-30z m55-86c0 0 0 0 0 0 5 4 15 12 25 22 10 12 18 24 23 37l-48 0z"/>
</font>
</defs>
</svg>
