<svg id="Capa_1" data-name="Capa 1" xmlns="http://www.w3.org/2000/svg" viewBox="0 0 1150 391"><defs><style>.cls-1{fill:#27455f;}.cls-2{fill:#80bcb4;}</style></defs><title>logo</title><path class="cls-1" d="M169,24.68h23.31c2.84,0,4.26,1.71,3.7,4.55L172.71,219.15c-.29,2.84-2,4.55-4.83,4.55h-23c-2.84,0-4.27-1.71-4-4.55l9.67-79.89a1.31,1.31,0,0,0-1.42-1.71H79.46a1.88,1.88,0,0,0-2,1.71L67.8,219.15a4.8,4.8,0,0,1-5.12,4.55h-23c-2.84,0-4.27-1.71-4-4.55L59,29.23c.57-2.84,2.27-4.55,5.12-4.55h23c2.84,0,4.26,1.71,4,4.55l-9.67,78.19c0,1.14.29,1.71,1.42,1.71h69.94a1.51,1.51,0,0,0,1.71-1.71l9.67-78.19A4.73,4.73,0,0,1,169,24.68Z"/><path class="cls-1" d="M214.5,156.6l8-64.82c5.12-41.51,36.68-69.37,78.47-69.37,42.36,0,67.1,27.86,62,69.37l-8,64.82c-5.4,42.08-37,69.94-79,69.94C234.12,226.54,209.39,198.67,214.5,156.6Zm108.32,1.14,8-66.25c3.13-24.45-10.23-40.66-33.26-40.66S257.43,67,254.59,91.49l-8.24,66.25c-3.13,24.45,10.23,40.37,33,40.37C302.64,198.11,319.7,182.19,322.83,157.74Z"/><path class="cls-1" d="M486.58,220.28,460.43,139a1.91,1.91,0,0,0-2-1.14H426.31a2.07,2.07,0,0,0-2,1.71l-9.67,79.61a4.8,4.8,0,0,1-5.12,4.55h-23c-2.84,0-4.27-1.71-4-4.55l23.6-190.2c.28-2.84,2-4.55,4.83-4.55h74.77c34.12,0,54.3,23.31,50,58-3.41,26.44-19.9,45.49-43.22,52.31a1.7,1.7,0,0,0-1.14,2.27l28.15,81.31c.85,3.13-.57,5.4-4,5.4H491.42C488.86,223.7,487.15,222.84,486.58,220.28ZM434.84,54.53l-6.82,56c-.29,1.14.28,1.71,1.42,1.71h40.94c17.63,0,31-11.94,33.26-29.28,2.28-17.91-8.24-30.14-25.87-30.14H436.83C435.69,52.82,434.84,53.39,434.84,54.53Z"/><path class="cls-1" d="M551.69,219.15,575,29.23c.57-2.84,2.27-4.55,5.12-4.55h23c2.84,0,4.26,1.71,4,4.55L583.81,219.15a4.8,4.8,0,0,1-5.12,4.55h-23C552.82,223.7,551.4,222,551.69,219.15Z"/><path class="cls-1" d="M613.95,219.15,616.79,197a14.08,14.08,0,0,1,2.27-5.69L728.24,55.1c.85-1.14.57-2-.85-2H639c-2.84,0-4.27-1.71-4-4.55l2.27-19.33c.57-2.84,2.28-4.55,5.12-4.55h122c2.56,0,4,1.71,3.7,4.55L765.49,51.4a11.44,11.44,0,0,1-2.56,5.69L654,193.27c-1.14,1.14-.57,2,.85,2h88.42c2.84,0,4.27,1.71,4,4.55l-2.56,19.33a4.72,4.72,0,0,1-4.83,4.55h-122C615.09,223.7,613.67,222,613.95,219.15Z"/><path class="cls-1" d="M779.7,156.6l8-64.82c5.12-41.51,36.68-69.37,78.47-69.37,42.36,0,67.1,27.86,62,69.37l-8,64.82c-5.4,42.08-37,69.94-79,69.94C799.31,226.54,774.58,198.67,779.7,156.6ZM888,157.74l8-66.25c3.13-24.45-10.23-40.66-33.26-40.66S822.63,67,819.78,91.49l-8.24,66.25c-3.13,24.45,10.23,40.37,33,40.37C867.83,198.11,884.89,182.19,888,157.74Z"/><path class="cls-1" d="M947.72,219.15,971,29.23c.57-2.84,2.27-4.55,5.12-4.55H998a5.79,5.79,0,0,1,5.4,3.13L1064.57,158c.57,1.42,1.71,1.14,2-.57L1082.2,29.23c.57-2.84,2.27-4.55,5.12-4.55h23c2.84,0,4.26,1.71,4,4.55L1091,219.15a4.8,4.8,0,0,1-5.12,4.55h-22.46a5.37,5.37,0,0,1-5.12-3.13L997.19,89.5c-.85-1.42-2-1.14-2,.57L979.56,219.15c-.29,3.13-2.28,4.55-5.12,4.55H951.7C948.86,223.7,947.43,222,947.72,219.15Z"/><path class="cls-2" d="M86.67,276.69l-.42,3.83a1.49,1.49,0,0,1-1.55,1.35H65.42a.49.49,0,0,0-.52.52L57,346.53a1.46,1.46,0,0,1-1.45,1.35H51a1.07,1.07,0,0,1-1.14-1.35l7.87-64.14c0-.31-.1-.52-.41-.52H38.8a1.07,1.07,0,0,1-1.14-1.35l.52-3.83a1.39,1.39,0,0,1,1.45-1.35h45.9A1.07,1.07,0,0,1,86.67,276.69Z"/><path class="cls-2" d="M121.48,334.61a1.23,1.23,0,0,1,1.76-.62l2.8,1.66a1.13,1.13,0,0,1,.31,1.76,22.62,22.62,0,0,1-20.1,11.29c-9.53,0-15.44-5-17.2-13-.93-3.84-.83-8.5-.1-14.3.62-5.28,1.14-8.81,2.38-12a22.22,22.22,0,0,1,21.24-14.82c11.92,0,17.41,6.94,17.93,17.82a60.65,60.65,0,0,1-.72,10.36,1.39,1.39,0,0,1-1.45,1.35H96.2a.58.58,0,0,0-.62.52,33.85,33.85,0,0,0-.31,7.56c.62,6,5.08,10.16,12.43,10.16A15.81,15.81,0,0,0,121.48,334.61ZM98.06,310.78a42.19,42.19,0,0,0-1.66,7c0,.31.1.52.42.52h25.9a.49.49,0,0,0,.52-.52,53.42,53.42,0,0,0,.21-6.63c-.62-6-4.77-10.15-11.71-10.15S100.13,305.08,98.06,310.78Z"/><path class="cls-2" d="M146.34,334.3c-.52-3.52-.31-7.56.31-12.85a52.24,52.24,0,0,1,2.9-12.64,22.45,22.45,0,0,1,21.24-14.2c10.15,0,16.89,6,18,13.37a14.28,14.28,0,0,1,.21,2.8,1.42,1.42,0,0,1-1.35,1.55l-4.46.52c-.83.1-1.35-.21-1.35-1.14,0-.41-.1-.83-.1-1.24-.52-5.08-4.87-9.43-11.81-9.43a14.37,14.37,0,0,0-14,10.05,45.81,45.81,0,0,0-2.18,10.46,50.13,50.13,0,0,0-.41,10.57c.52,6,4.66,10.15,11.5,10.15s12.23-4,14-9.32a.67.67,0,0,0,.21-.52.1.1,0,0,1,.1-.1,1.35,1.35,0,0,1,1.66-1.14l4.25.72a1.08,1.08,0,0,1,.93,1.55c-.1.42-.31,1-.52,1.76-3,8-11.5,13.47-21.45,13.47S147.8,343,146.34,334.3Z"/><path class="cls-2" d="M244.26,312.64l-4.14,33.88a1.39,1.39,0,0,1-1.45,1.35H234.1a1.11,1.11,0,0,1-1.14-1.35l4-32.43c.93-7.67-3.21-13-10.36-13A13.62,13.62,0,0,0,213,312l-4.25,34.5a1.49,1.49,0,0,1-1.55,1.35h-4.46a1.07,1.07,0,0,1-1.14-1.35l8.6-69.83a1.39,1.39,0,0,1,1.45-1.35h4.46a1.07,1.07,0,0,1,1.14,1.35l-2.9,23.93c0,.42.21.73.52.31,3.31-4.14,8.29-6.22,14.2-6.22C239.6,294.72,245.6,301.77,244.26,312.64Z"/><path class="cls-2" d="M302.59,312.64l-4.14,33.88a1.39,1.39,0,0,1-1.45,1.35h-4.56a1.11,1.11,0,0,1-1.14-1.35l4-32.43c.93-7.67-3.21-13-10.36-13A13.62,13.62,0,0,0,271.3,312l-4.25,34.5a1.49,1.49,0,0,1-1.55,1.35H261a1.07,1.07,0,0,1-1.14-1.35L266,296.79a1.39,1.39,0,0,1,1.45-1.35H272a1.11,1.11,0,0,1,1.14,1.35l-.52,3.83c0,.42.21.73.52.31,3.31-4.14,8.29-6.22,14.2-6.22C297.93,294.72,303.94,301.77,302.59,312.64Z"/><path class="cls-2" d="M319.48,334.3a48.35,48.35,0,0,1,.21-12.74,56.27,56.27,0,0,1,2.8-12.64A22.71,22.71,0,0,1,344,294.62c9.74,0,16.37,5.49,17.82,14.2a48.41,48.41,0,0,1-.21,12.75,54,54,0,0,1-2.9,12.74,22.68,22.68,0,0,1-21.35,14.4C327.56,348.7,321,343.21,319.48,334.3Zm32.85-2.18a51.52,51.52,0,0,0,2.07-10.46,43.63,43.63,0,0,0,.52-10.46c-.72-6.11-5.08-10.15-11.81-10.15-6.53,0-11.71,4-14.09,10.15-.93,2.28-1.55,6.11-2.07,10.46a43.44,43.44,0,0,0-.52,10.46c.72,6.22,5.08,10.15,11.81,10.15C344.66,342.28,349.94,338.34,352.32,332.12Z"/><path class="cls-2" d="M377.29,346.53l8.6-69.83a1.39,1.39,0,0,1,1.45-1.35h4.46a1.07,1.07,0,0,1,1.14,1.35l-8.5,69.83a1.49,1.49,0,0,1-1.55,1.35h-4.46A1.07,1.07,0,0,1,377.29,346.53Z"/><path class="cls-2" d="M406,334.3a48.35,48.35,0,0,1,.21-12.74,56.27,56.27,0,0,1,2.8-12.64,22.71,22.71,0,0,1,21.55-14.3c9.74,0,16.37,5.49,17.82,14.2a48.41,48.41,0,0,1-.21,12.75,54,54,0,0,1-2.9,12.74,22.68,22.68,0,0,1-21.35,14.4C414.08,348.7,407.55,343.21,406,334.3Zm32.85-2.18a51.52,51.52,0,0,0,2.07-10.46,43.63,43.63,0,0,0,.52-10.46c-.72-6.11-5.08-10.15-11.81-10.15-6.53,0-11.71,4-14.09,10.15-.93,2.28-1.55,6.11-2.07,10.46a43.44,43.44,0,0,0-.52,10.46c.72,6.22,5.08,10.15,11.81,10.15C431.17,342.28,436.46,338.34,438.84,332.12Z"/><path class="cls-2" d="M502.77,295.45h4.46a1.07,1.07,0,0,1,1.14,1.35l-6,49.32c-2.18,17.51-14.61,23.21-30.26,22.28-.93-.1-1.24-.52-1.14-1.45l.73-4.14c.1-.93.62-1.35,1.45-1.24,14.09.62,20.62-4,22.07-15.64l.41-3.63c.1-.41-.21-.62-.52-.21a17.5,17.5,0,0,1-13.78,6.11c-8.39,0-15.44-4.77-16.79-13.88a54.24,54.24,0,0,1,.41-12.64c.62-5.39,1.35-9.74,2.9-13.26,3.32-8.08,10.57-13.78,19.58-13.78,6.11,0,10.26,2.28,12.74,5.91.31.41.62.21.62-.21l.41-3.52A1.49,1.49,0,0,1,502.77,295.45Zm-4.56,26.11c.83-7.15.93-8.39.72-10.46-.31-5.6-4.14-10.05-10.78-10.05s-11.5,4.46-13.78,10.05c-.83,2-1.55,4.77-2.28,10.36s-.62,9-.31,10.46A10.94,10.94,0,0,0,483.18,342,13.63,13.63,0,0,0,496.45,332C497.07,330.05,497.38,328.7,498.21,321.56Z"/><path class="cls-2" d="M516.13,367.25l.41-3.63c.1-.83.52-1.35.93-1.35h.73c7.56,0,9.95-2.49,14.81-14.09.21-.21.21-.31.1-.62L522.45,297a1.23,1.23,0,0,1,1.35-1.55h4.66a1.26,1.26,0,0,1,1.35,1.14l8,40.62c.1.52.52.52.62,0l17.72-40.62a1.41,1.41,0,0,1,1.45-1.14h4.87c.93,0,1.35.62.93,1.55L538.1,352.43c-6.22,13.26-9.53,16.17-20.72,16.17h-.72C516.23,368.6,516,368.08,516.13,367.25Z"/><path class="cls-2" d="M620.47,329.33l.31-2.9a1.49,1.49,0,0,1,1.55-1.35h4.25a1.07,1.07,0,0,1,1.14,1.35l-.31,2.49c-.93,7.77,5.08,13.37,16.16,13.37,10.57,0,16.37-5.08,17.3-12.33s-4.14-10.78-16.47-16.37c-11.5-5-19.89-8.81-18.44-20.72,1.45-11.71,10.67-18.34,24.35-18.34,14.81,0,22.9,7.87,21.45,19.69l-.21,2a1.39,1.39,0,0,1-1.45,1.35h-4.46a1.07,1.07,0,0,1-1.14-1.35l.21-1.55c.93-7.77-4.35-13.68-15.64-13.68-9.43,0-15.13,4.14-16.06,11.71-.93,7.77,4.35,10.26,16,15.13,11.71,5.18,20.52,10.05,19.07,21.86-1.35,11.29-10.78,19.07-25.7,19.07S619,341,620.47,329.33Z"/><path class="cls-2" d="M684.91,334.3a48.35,48.35,0,0,1,.21-12.74,56.27,56.27,0,0,1,2.8-12.64,22.71,22.71,0,0,1,21.55-14.3c9.74,0,16.37,5.49,17.82,14.2a48.41,48.41,0,0,1-.21,12.75,54,54,0,0,1-2.9,12.74,22.68,22.68,0,0,1-21.35,14.4C693,348.7,686.47,343.21,684.91,334.3Zm32.85-2.18a51.52,51.52,0,0,0,2.07-10.46,43.63,43.63,0,0,0,.52-10.46c-.72-6.11-5.08-10.15-11.81-10.15-6.53,0-11.71,4-14.09,10.15-.93,2.28-1.55,6.11-2.07,10.46a43.44,43.44,0,0,0-.52,10.46c.72,6.22,5.08,10.15,11.81,10.15C710.09,342.28,715.37,338.34,717.76,332.12Z"/><path class="cls-2" d="M742.73,346.53l8.6-69.83a1.39,1.39,0,0,1,1.45-1.35h4.46a1.07,1.07,0,0,1,1.14,1.35l-8.5,69.83a1.49,1.49,0,0,1-1.55,1.35h-4.46A1.07,1.07,0,0,1,742.73,346.53Z"/><path class="cls-2" d="M808.52,295.45H813a1.07,1.07,0,0,1,1.14,1.35L808,346.53a1.33,1.33,0,0,1-1.45,1.35H802.1a1.07,1.07,0,0,1-1.14-1.35l.41-3.94c.1-.41-.21-.62-.52-.21-3.32,3.94-8,6.22-14.09,6.22-9.53,0-16.89-6-15.54-17.1l4.25-34.71a1.39,1.39,0,0,1,1.45-1.35h4.56a1.07,1.07,0,0,1,1.14,1.35l-4,32.53c-.93,7.77,3,12.85,10.36,12.85,7.67,0,13.16-5.18,14.09-12.85l4-32.53A1.39,1.39,0,0,1,808.52,295.45Z"/><path class="cls-2" d="M855.25,301.56h-11a.66.66,0,0,0-.62.52L840,332.33c-.83,6.73,1.76,9,7.77,9h2.28a1.11,1.11,0,0,1,1.14,1.35l-.52,3.63a1.48,1.48,0,0,1-1.45,1.45h-3.42c-8.7,0-14.4-2.38-13.05-13.16l4-32.53a.49.49,0,0,0-.52-.52h-5.7a1.06,1.06,0,0,1-1.14-1.35l.41-3.42a1.39,1.39,0,0,1,1.45-1.35h5.8a.56.56,0,0,0,.52-.52l1.45-11.6a1.39,1.39,0,0,1,1.45-1.35h4.35a1.11,1.11,0,0,1,1.14,1.35l-1.45,11.6c0,.31.1.52.41.52h11a1.07,1.07,0,0,1,1.14,1.35l-.41,3.42A1.46,1.46,0,0,1,855.25,301.56Z"/><path class="cls-2" d="M869.75,346.53l6-49.74a1.49,1.49,0,0,1,1.55-1.35h4.46a1.07,1.07,0,0,1,1.14,1.35l-6.11,49.74a1.39,1.39,0,0,1-1.45,1.35h-4.46A1.07,1.07,0,0,1,869.75,346.53Zm6.11-65.9a6,6,0,0,1,6.11-5.28c3.21,0,5.18,2.18,4.77,5.28a6,6,0,0,1-6.11,5.39C877.42,286,875.45,283.84,875.87,280.63Z"/><path class="cls-2" d="M899,334.3a48.35,48.35,0,0,1,.21-12.74,56.27,56.27,0,0,1,2.8-12.64,22.71,22.71,0,0,1,21.55-14.3c9.74,0,16.37,5.49,17.82,14.2a48.41,48.41,0,0,1-.21,12.75,54,54,0,0,1-2.9,12.74,22.68,22.68,0,0,1-21.35,14.4C907.05,348.7,900.53,343.21,899,334.3Zm32.85-2.18a51.52,51.52,0,0,0,2.07-10.46,43.63,43.63,0,0,0,.52-10.46c-.72-6.11-5.08-10.15-11.81-10.15-6.53,0-11.71,4-14.09,10.15-.93,2.28-1.55,6.11-2.07,10.46a43.44,43.44,0,0,0-.52,10.46c.72,6.22,5.08,10.15,11.81,10.15C924.15,342.28,929.43,338.34,931.82,332.12Z"/><path class="cls-2" d="M999.48,312.64l-4.14,33.88a1.39,1.39,0,0,1-1.45,1.35h-4.56a1.11,1.11,0,0,1-1.14-1.35l4-32.43c.93-7.67-3.21-13-10.36-13A13.62,13.62,0,0,0,968.18,312l-4.25,34.5a1.49,1.49,0,0,1-1.55,1.35h-4.46a1.07,1.07,0,0,1-1.14-1.35l6.11-49.74a1.39,1.39,0,0,1,1.45-1.35h4.56a1.11,1.11,0,0,1,1.14,1.35l-.52,3.83c0,.42.21.73.52.31,3.31-4.14,8.29-6.22,14.2-6.22C994.81,294.72,1000.82,301.77,999.48,312.64Z"/><path class="cls-2" d="M1014.19,334.61l.1-.93a1.39,1.39,0,0,1,1.45-1.35h4.35c.73,0,1.24.41,1.14.93l-.1.93c-.52,4.35,3.83,8.5,11,8.5s12.12-3.73,12.75-8.6c.72-5.59-5-7.15-11.29-9.22-8.39-2.59-17.2-5.6-16.06-15.44,1.14-8.91,9.33-14.51,20.2-14.51,11.29,0,17.93,6.11,17,14.3a1.49,1.49,0,0,1-1.55,1.35h-4c-.83,0-1.35-.31-1.24-.72l.1-.62c.52-4.56-3.52-8.29-11.09-8.29-6.74,0-11.71,3-12.33,8-.62,5.18,4.56,7,11.09,9.12,8.29,2.49,17.72,5.28,16.47,15.54-1.14,8.91-9.22,14.82-20.52,14.82C1020,348.39,1013.25,342.17,1014.19,334.61Z"/></svg>