<svg id="Capa_1" data-name="Capa 1" xmlns="http://www.w3.org/2000/svg" viewBox="0 0 580 580"><defs><style>.cls-1{fill:#80bcb4;}.cls-2{fill:#fff;}.cls-3{fill:#cae4c9;}.cls-4{fill:#27455f;}.cls-5{fill:none;stroke:#fff;stroke-width:17.09px;}</style></defs><title>logo</title><circle class="cls-1" cx="290" cy="290" r="258"/><circle class="cls-2" cx="290" cy="290" r="207.7"/><polygon class="cls-3" points="178.42 477.44 153.09 452.11 189.23 416.22 239.64 416.22 178.42 477.44"/><rect class="cls-3" x="187.22" y="379.73" width="255.6" height="35.83" transform="translate(-188.91 339.22) rotate(-45)"/><rect class="cls-3" x="265.84" y="405.44" width="211.2" height="35.83" transform="translate(-190.56 386.64) rotate(-45)"/><polygon class="cls-4" points="108.15 383.45 82.82 358.12 138.58 302.35 220.71 302.35 364.32 158.74 506.68 301.1 481.34 326.44 364.32 209.41 235.55 338.18 153.42 338.18 108.15 383.45"/><polygon class="cls-4" points="139.96 433.78 114.62 408.44 163.01 360.05 245.14 360.05 364.32 240.87 487.51 364.06 462.17 389.4 364.32 291.54 259.98 395.88 177.85 395.88 139.96 433.78"/><path class="cls-4" d="M290,515.84A225.84,225.84,0,0,1,130.31,130.31,225.84,225.84,0,0,1,449.69,449.69,224.36,224.36,0,0,1,290,515.84ZM290,100c-104.77,0-190,85.24-190,190s85.24,190,190,190,190-85.24,190-190S394.77,100,290,100Z"/><circle class="cls-5" cx="474.3" cy="333.08" r="7.48"/><circle class="cls-4" cx="474.3" cy="333.08" r="7.48"/><circle class="cls-5" cx="130.36" cy="377.94" r="7.48"/><circle class="cls-4" cx="130.36" cy="377.94" r="7.48"/></svg>